<mxfile host="Electron" agent="Mozilla/5.0 (Windows NT 10.0; Win64; x64) AppleWebKit/537.36 (KHTML, like Gecko) draw.io/26.0.16 Chrome/132.0.6834.196 Electron/34.2.0 Safari/537.36" version="26.0.16">
  <diagram id="R2lEEEUBdFMjLlhIrx00" name="Page-1">
    <mxGraphModel dx="1434" dy="836" grid="1" gridSize="10" guides="1" tooltips="1" connect="1" arrows="1" fold="1" page="0" pageScale="1" pageWidth="850" pageHeight="1100" math="0" shadow="0" extFonts="Permanent Marker^https://fonts.googleapis.com/css?family=Permanent+Marker">
      <root>
        <mxCell id="0" />
        <mxCell id="1" parent="0" />
        <mxCell id="C-vyLk0tnHw3VtMMgP7b-23" value="Usuario" style="shape=table;startSize=30;container=1;collapsible=1;childLayout=tableLayout;fixedRows=1;rowLines=0;fontStyle=1;align=center;resizeLast=1;" parent="1" vertex="1">
          <mxGeometry x="40" y="120" width="280" height="240" as="geometry" />
        </mxCell>
        <mxCell id="C-vyLk0tnHw3VtMMgP7b-24" value="" style="shape=partialRectangle;collapsible=0;dropTarget=0;pointerEvents=0;fillColor=none;points=[[0,0.5],[1,0.5]];portConstraint=eastwest;top=0;left=0;right=0;bottom=1;" parent="C-vyLk0tnHw3VtMMgP7b-23" vertex="1">
          <mxGeometry y="30" width="280" height="30" as="geometry" />
        </mxCell>
        <mxCell id="C-vyLk0tnHw3VtMMgP7b-25" value="PK" style="shape=partialRectangle;overflow=hidden;connectable=0;fillColor=none;top=0;left=0;bottom=0;right=0;fontStyle=1;" parent="C-vyLk0tnHw3VtMMgP7b-24" vertex="1">
          <mxGeometry width="30" height="30" as="geometry">
            <mxRectangle width="30" height="30" as="alternateBounds" />
          </mxGeometry>
        </mxCell>
        <mxCell id="C-vyLk0tnHw3VtMMgP7b-26" value="id // autoincremental" style="shape=partialRectangle;overflow=hidden;connectable=0;fillColor=none;top=0;left=0;bottom=0;right=0;align=left;spacingLeft=6;fontStyle=5;" parent="C-vyLk0tnHw3VtMMgP7b-24" vertex="1">
          <mxGeometry x="30" width="250" height="30" as="geometry">
            <mxRectangle width="250" height="30" as="alternateBounds" />
          </mxGeometry>
        </mxCell>
        <mxCell id="vxzAaFLq9BQ9UYZxifJz-2" value="Correo // varchar2(256) // NOT NULL" style="text;html=1;align=center;verticalAlign=middle;whiteSpace=wrap;rounded=0;" parent="1" vertex="1">
          <mxGeometry x="40" y="180" width="280" height="30" as="geometry" />
        </mxCell>
        <mxCell id="vxzAaFLq9BQ9UYZxifJz-3" value="Nombre // varchar2(50) // NOT NULL" style="text;html=1;align=center;verticalAlign=middle;whiteSpace=wrap;rounded=0;" parent="1" vertex="1">
          <mxGeometry x="40" y="210" width="280" height="30" as="geometry" />
        </mxCell>
        <mxCell id="vxzAaFLq9BQ9UYZxifJz-4" value="Apellido // varchar2(150) // NOT NULL" style="text;html=1;align=center;verticalAlign=middle;whiteSpace=wrap;rounded=0;" parent="1" vertex="1">
          <mxGeometry x="40" y="240" width="280" height="30" as="geometry" />
        </mxCell>
        <mxCell id="pEZchGz9EZuzRrnrnr65-2" value="Password // varchar2(150) // NOT NULL" style="text;html=1;align=center;verticalAlign=middle;whiteSpace=wrap;rounded=0;" parent="1" vertex="1">
          <mxGeometry x="40" y="270" width="280" height="30" as="geometry" />
        </mxCell>
        <mxCell id="pEZchGz9EZuzRrnrnr65-3" value="Telefono // int(9) // NOT NULL" style="text;html=1;align=center;verticalAlign=middle;whiteSpace=wrap;rounded=0;" parent="1" vertex="1">
          <mxGeometry x="40" y="300" width="280" height="30" as="geometry" />
        </mxCell>
        <mxCell id="pEZchGz9EZuzRrnrnr65-4" value="Nacionalidad // varchar2(70) // NOT NULL" style="text;html=1;align=center;verticalAlign=middle;whiteSpace=wrap;rounded=0;" parent="1" vertex="1">
          <mxGeometry x="40" y="330" width="280" height="30" as="geometry" />
        </mxCell>
        <mxCell id="pEZchGz9EZuzRrnrnr65-6" value="Noticia" style="shape=table;startSize=30;container=1;collapsible=1;childLayout=tableLayout;fixedRows=1;rowLines=0;fontStyle=1;align=center;resizeLast=1;" parent="1" vertex="1">
          <mxGeometry x="440" y="120" width="280" height="210" as="geometry" />
        </mxCell>
        <mxCell id="pEZchGz9EZuzRrnrnr65-7" value="" style="shape=partialRectangle;collapsible=0;dropTarget=0;pointerEvents=0;fillColor=none;points=[[0,0.5],[1,0.5]];portConstraint=eastwest;top=0;left=0;right=0;bottom=1;" parent="pEZchGz9EZuzRrnrnr65-6" vertex="1">
          <mxGeometry y="30" width="280" height="30" as="geometry" />
        </mxCell>
        <mxCell id="pEZchGz9EZuzRrnrnr65-8" value="PK" style="shape=partialRectangle;overflow=hidden;connectable=0;fillColor=none;top=0;left=0;bottom=0;right=0;fontStyle=1;" parent="pEZchGz9EZuzRrnrnr65-7" vertex="1">
          <mxGeometry width="30" height="30" as="geometry">
            <mxRectangle width="30" height="30" as="alternateBounds" />
          </mxGeometry>
        </mxCell>
        <mxCell id="pEZchGz9EZuzRrnrnr65-9" value="id // autoincremental" style="shape=partialRectangle;overflow=hidden;connectable=0;fillColor=none;top=0;left=0;bottom=0;right=0;align=left;spacingLeft=6;fontStyle=5;" parent="pEZchGz9EZuzRrnrnr65-7" vertex="1">
          <mxGeometry x="30" width="250" height="30" as="geometry">
            <mxRectangle width="250" height="30" as="alternateBounds" />
          </mxGeometry>
        </mxCell>
        <mxCell id="pEZchGz9EZuzRrnrnr65-10" value="Titulo // varchar2(80) // NOT NULL" style="text;html=1;align=center;verticalAlign=middle;whiteSpace=wrap;rounded=0;" parent="1" vertex="1">
          <mxGeometry x="440" y="180" width="280" height="30" as="geometry" />
        </mxCell>
        <mxCell id="pEZchGz9EZuzRrnrnr65-11" value="Cuerpo // varchar2(256) // NOT NULL" style="text;html=1;align=center;verticalAlign=middle;whiteSpace=wrap;rounded=0;" parent="1" vertex="1">
          <mxGeometry x="440" y="210" width="280" height="30" as="geometry" />
        </mxCell>
        <mxCell id="pEZchGz9EZuzRrnrnr65-12" value="&lt;b&gt;FK // idLiga // NOT NULL ? Ligas&lt;/b&gt;" style="text;html=1;align=center;verticalAlign=middle;whiteSpace=wrap;rounded=0;" parent="1" vertex="1">
          <mxGeometry x="440" y="270" width="280" height="30" as="geometry" />
        </mxCell>
        <mxCell id="pEZchGz9EZuzRrnrnr65-14" value="&lt;b&gt;FK // IdJugador // NOT NULL ? Jugadores&lt;/b&gt;" style="text;html=1;align=center;verticalAlign=middle;whiteSpace=wrap;rounded=0;" parent="1" vertex="1">
          <mxGeometry x="440" y="300" width="280" height="30" as="geometry" />
        </mxCell>
        <mxCell id="pEZchGz9EZuzRrnrnr65-15" value="Fecha // Date // NOT NULL" style="text;html=1;align=center;verticalAlign=middle;whiteSpace=wrap;rounded=0;" parent="1" vertex="1">
          <mxGeometry x="440" y="240" width="280" height="30" as="geometry" />
        </mxCell>
        <mxCell id="pEZchGz9EZuzRrnrnr65-16" value="Liga" style="shape=table;startSize=30;container=1;collapsible=1;childLayout=tableLayout;fixedRows=1;rowLines=0;fontStyle=1;align=center;resizeLast=1;" parent="1" vertex="1">
          <mxGeometry x="40" y="480" width="280" height="140" as="geometry" />
        </mxCell>
        <mxCell id="pEZchGz9EZuzRrnrnr65-17" value="" style="shape=partialRectangle;collapsible=0;dropTarget=0;pointerEvents=0;fillColor=none;points=[[0,0.5],[1,0.5]];portConstraint=eastwest;top=0;left=0;right=0;bottom=1;" parent="pEZchGz9EZuzRrnrnr65-16" vertex="1">
          <mxGeometry y="30" width="280" height="30" as="geometry" />
        </mxCell>
        <mxCell id="pEZchGz9EZuzRrnrnr65-18" value="PK" style="shape=partialRectangle;overflow=hidden;connectable=0;fillColor=none;top=0;left=0;bottom=0;right=0;fontStyle=1;" parent="pEZchGz9EZuzRrnrnr65-17" vertex="1">
          <mxGeometry width="30" height="30" as="geometry">
            <mxRectangle width="30" height="30" as="alternateBounds" />
          </mxGeometry>
        </mxCell>
        <mxCell id="pEZchGz9EZuzRrnrnr65-19" value="id " style="shape=partialRectangle;overflow=hidden;connectable=0;fillColor=none;top=0;left=0;bottom=0;right=0;align=left;spacingLeft=6;fontStyle=5;" parent="pEZchGz9EZuzRrnrnr65-17" vertex="1">
          <mxGeometry x="30" width="250" height="30" as="geometry">
            <mxRectangle width="250" height="30" as="alternateBounds" />
          </mxGeometry>
        </mxCell>
        <mxCell id="pEZchGz9EZuzRrnrnr65-20" value="Nombre // varchar2(70) // NOT NULL" style="text;html=1;align=center;verticalAlign=middle;whiteSpace=wrap;rounded=0;" parent="1" vertex="1">
          <mxGeometry x="40" y="540" width="280" height="30" as="geometry" />
        </mxCell>
        <mxCell id="pEZchGz9EZuzRrnrnr65-21" value="País // varchar2(70) // NOT NULL" style="text;html=1;align=center;verticalAlign=middle;whiteSpace=wrap;rounded=0;" parent="1" vertex="1">
          <mxGeometry x="40" y="570" width="280" height="30" as="geometry" />
        </mxCell>
        <mxCell id="pEZchGz9EZuzRrnrnr65-30" value="Equipo" style="shape=table;startSize=30;container=1;collapsible=1;childLayout=tableLayout;fixedRows=1;rowLines=0;fontStyle=1;align=center;resizeLast=1;" parent="1" vertex="1">
          <mxGeometry x="440" y="480" width="280" height="160" as="geometry" />
        </mxCell>
        <mxCell id="pEZchGz9EZuzRrnrnr65-31" value="" style="shape=partialRectangle;collapsible=0;dropTarget=0;pointerEvents=0;fillColor=none;points=[[0,0.5],[1,0.5]];portConstraint=eastwest;top=0;left=0;right=0;bottom=1;" parent="pEZchGz9EZuzRrnrnr65-30" vertex="1">
          <mxGeometry y="30" width="280" height="30" as="geometry" />
        </mxCell>
        <mxCell id="pEZchGz9EZuzRrnrnr65-32" value="PK" style="shape=partialRectangle;overflow=hidden;connectable=0;fillColor=none;top=0;left=0;bottom=0;right=0;fontStyle=1;" parent="pEZchGz9EZuzRrnrnr65-31" vertex="1">
          <mxGeometry width="30" height="30" as="geometry">
            <mxRectangle width="30" height="30" as="alternateBounds" />
          </mxGeometry>
        </mxCell>
        <mxCell id="pEZchGz9EZuzRrnrnr65-33" value="id " style="shape=partialRectangle;overflow=hidden;connectable=0;fillColor=none;top=0;left=0;bottom=0;right=0;align=left;spacingLeft=6;fontStyle=5;" parent="pEZchGz9EZuzRrnrnr65-31" vertex="1">
          <mxGeometry x="30" width="250" height="30" as="geometry">
            <mxRectangle width="250" height="30" as="alternateBounds" />
          </mxGeometry>
        </mxCell>
        <mxCell id="pEZchGz9EZuzRrnrnr65-34" value="Nombre // varchar2(70) // NOT NULL" style="text;html=1;align=center;verticalAlign=middle;whiteSpace=wrap;rounded=0;" parent="1" vertex="1">
          <mxGeometry x="440" y="540" width="280" height="30" as="geometry" />
        </mxCell>
        <mxCell id="pEZchGz9EZuzRrnrnr65-35" value="País // varchar2(70) // NOT NULL" style="text;html=1;align=center;verticalAlign=middle;whiteSpace=wrap;rounded=0;" parent="1" vertex="1">
          <mxGeometry x="440" y="570" width="280" height="30" as="geometry" />
        </mxCell>
        <mxCell id="pEZchGz9EZuzRrnrnr65-36" value="&lt;b&gt;FK // NombreLiga // varchar2(70) // NOT NULL&lt;/b&gt;" style="text;html=1;align=center;verticalAlign=middle;whiteSpace=wrap;rounded=0;" parent="1" vertex="1">
          <mxGeometry x="440" y="600" width="280" height="30" as="geometry" />
        </mxCell>
        <mxCell id="pEZchGz9EZuzRrnrnr65-38" value="Jugador" style="shape=table;startSize=30;container=1;collapsible=1;childLayout=tableLayout;fixedRows=1;rowLines=0;fontStyle=1;align=center;resizeLast=1;" parent="1" vertex="1">
          <mxGeometry x="840" y="480" width="280" height="210" as="geometry" />
        </mxCell>
        <mxCell id="pEZchGz9EZuzRrnrnr65-39" value="" style="shape=partialRectangle;collapsible=0;dropTarget=0;pointerEvents=0;fillColor=none;points=[[0,0.5],[1,0.5]];portConstraint=eastwest;top=0;left=0;right=0;bottom=1;" parent="pEZchGz9EZuzRrnrnr65-38" vertex="1">
          <mxGeometry y="30" width="280" height="30" as="geometry" />
        </mxCell>
        <mxCell id="pEZchGz9EZuzRrnrnr65-40" value="PK" style="shape=partialRectangle;overflow=hidden;connectable=0;fillColor=none;top=0;left=0;bottom=0;right=0;fontStyle=1;" parent="pEZchGz9EZuzRrnrnr65-39" vertex="1">
          <mxGeometry width="30" height="30" as="geometry">
            <mxRectangle width="30" height="30" as="alternateBounds" />
          </mxGeometry>
        </mxCell>
        <mxCell id="pEZchGz9EZuzRrnrnr65-41" value="id " style="shape=partialRectangle;overflow=hidden;connectable=0;fillColor=none;top=0;left=0;bottom=0;right=0;align=left;spacingLeft=6;fontStyle=5;" parent="pEZchGz9EZuzRrnrnr65-39" vertex="1">
          <mxGeometry x="30" width="250" height="30" as="geometry">
            <mxRectangle width="250" height="30" as="alternateBounds" />
          </mxGeometry>
        </mxCell>
        <mxCell id="pEZchGz9EZuzRrnrnr65-42" value="Nombre // varchar2(70) // NOT NULL" style="text;html=1;align=center;verticalAlign=middle;whiteSpace=wrap;rounded=0;" parent="1" vertex="1">
          <mxGeometry x="840" y="540" width="280" height="30" as="geometry" />
        </mxCell>
        <mxCell id="pEZchGz9EZuzRrnrnr65-43" value="País // varchar2(70) // NOT NULL" style="text;html=1;align=center;verticalAlign=middle;whiteSpace=wrap;rounded=0;" parent="1" vertex="1">
          <mxGeometry x="840" y="570" width="280" height="30" as="geometry" />
        </mxCell>
        <mxCell id="pEZchGz9EZuzRrnrnr65-44" value="&lt;b&gt;FK // NombreEquipo // varchar2(70) // NOT NULL&lt;/b&gt;" style="text;html=1;align=center;verticalAlign=middle;whiteSpace=wrap;rounded=0;" parent="1" vertex="1">
          <mxGeometry x="840" y="630" width="280" height="30" as="geometry" />
        </mxCell>
        <mxCell id="pEZchGz9EZuzRrnrnr65-52" value="Estadistica" style="shape=table;startSize=30;container=1;collapsible=1;childLayout=tableLayout;fixedRows=1;rowLines=0;fontStyle=1;align=center;resizeLast=1;" parent="1" vertex="1">
          <mxGeometry x="840" y="120" width="280" height="220" as="geometry" />
        </mxCell>
        <mxCell id="pEZchGz9EZuzRrnrnr65-53" value="" style="shape=partialRectangle;collapsible=0;dropTarget=0;pointerEvents=0;fillColor=none;points=[[0,0.5],[1,0.5]];portConstraint=eastwest;top=0;left=0;right=0;bottom=1;" parent="pEZchGz9EZuzRrnrnr65-52" vertex="1">
          <mxGeometry y="30" width="280" height="30" as="geometry" />
        </mxCell>
        <mxCell id="pEZchGz9EZuzRrnrnr65-54" value="PK" style="shape=partialRectangle;overflow=hidden;connectable=0;fillColor=none;top=0;left=0;bottom=0;right=0;fontStyle=1;" parent="pEZchGz9EZuzRrnrnr65-53" vertex="1">
          <mxGeometry width="30" height="30" as="geometry">
            <mxRectangle width="30" height="30" as="alternateBounds" />
          </mxGeometry>
        </mxCell>
        <mxCell id="pEZchGz9EZuzRrnrnr65-55" value="id " style="shape=partialRectangle;overflow=hidden;connectable=0;fillColor=none;top=0;left=0;bottom=0;right=0;align=left;spacingLeft=6;fontStyle=5;" parent="pEZchGz9EZuzRrnrnr65-53" vertex="1">
          <mxGeometry x="30" width="250" height="30" as="geometry">
            <mxRectangle width="250" height="30" as="alternateBounds" />
          </mxGeometry>
        </mxCell>
        <mxCell id="pEZchGz9EZuzRrnrnr65-58" value="&lt;b&gt;FK // NombreJugador // varchar2(70) // NOT NULL&lt;/b&gt;" style="text;html=1;align=center;verticalAlign=middle;whiteSpace=wrap;rounded=0;" parent="1" vertex="1">
          <mxGeometry x="840" y="300" width="280" height="30" as="geometry" />
        </mxCell>
        <mxCell id="pEZchGz9EZuzRrnrnr65-59" value="Edad // varchar2(70) // NOT NULL" style="text;html=1;align=center;verticalAlign=middle;whiteSpace=wrap;rounded=0;" parent="1" vertex="1">
          <mxGeometry x="840" y="600" width="280" height="30" as="geometry" />
        </mxCell>
        <mxCell id="pEZchGz9EZuzRrnrnr65-60" value="Goles // varchar2(70) // NOT NULL" style="text;html=1;align=center;verticalAlign=middle;whiteSpace=wrap;rounded=0;" parent="1" vertex="1">
          <mxGeometry x="840" y="180" width="280" height="30" as="geometry" />
        </mxCell>
        <mxCell id="pEZchGz9EZuzRrnrnr65-61" value="Asistencias // varchar2(70) // NOT NULL" style="text;html=1;align=center;verticalAlign=middle;whiteSpace=wrap;rounded=0;" parent="1" vertex="1">
          <mxGeometry x="840" y="210" width="280" height="30" as="geometry" />
        </mxCell>
        <mxCell id="pEZchGz9EZuzRrnrnr65-62" value="Amarillas // varchar2(70) // NOT NULL" style="text;html=1;align=center;verticalAlign=middle;whiteSpace=wrap;rounded=0;" parent="1" vertex="1">
          <mxGeometry x="840" y="240" width="280" height="30" as="geometry" />
        </mxCell>
        <mxCell id="pEZchGz9EZuzRrnrnr65-64" value="Rojas // varchar2(70) // NOT NULL" style="text;html=1;align=center;verticalAlign=middle;whiteSpace=wrap;rounded=0;" parent="1" vertex="1">
          <mxGeometry x="840" y="270" width="280" height="30" as="geometry" />
        </mxCell>
      </root>
    </mxGraphModel>
  </diagram>
</mxfile>
